<svg version="1.1" id="Layer_1" xmlns:x="ns_extend;" xmlns:i="ns_ai;" xmlns:graph="ns_graphs;" xmlns="http://www.w3.org/2000/svg" xmlns:xlink="http://www.w3.org/1999/xlink" x="0px" y="0px" viewBox="0 0 547 140" style="enable-background:new 0 0 547 140;" xml:space="preserve">
 <style type="text/css">
  .st0{fill-rule:evenodd;clip-rule:evenodd;fill:#FFFFFF;}
	.st1{fill-rule:evenodd;clip-rule:evenodd;fill:#FAC51F;}
	.st2{fill-rule:evenodd;clip-rule:evenodd;fill:#E4388E;}
	.st3{fill-rule:evenodd;clip-rule:evenodd;fill:#109CD9;}
	.st4{fill-rule:evenodd;clip-rule:evenodd;fill:#EC771A;}
	.st5{fill-rule:evenodd;clip-rule:evenodd;fill:#9E216D;}
	.st6{fill-rule:evenodd;clip-rule:evenodd;fill:#27418E;}
 </style>
 <metadata>
  <sfw xmlns="ns_sfw;">
   <slices>
   </slices>
   <sliceSourceBounds bottomLeftOrigin="true" height="140" width="546.6" x="0" y="0">
   </sliceSourceBounds>
  </sfw>
 </metadata>
 <desc>
  Created with Sketch.
 </desc>
 <g id="Symbols">
  <g id="logo">
   <g>
    <g id="_x2D_-text" transform="translate(182.000000, 44.000000)">
     <path id="Fill-1" class="st0" d="M22.2,15.3c10.4,0,15.3,5.9,15.3,5.9L33.1,28c0,0-4.1-4.3-10.4-4.3c-7.3,0-12.1,5.5-12.1,12.3
					c0,6.7,4.8,12.5,12.4,12.5c6.7,0,11.7-5.1,11.7-5.1l3.8,7c0,0-5.7,6.5-16.4,6.5C9,56.9,0.6,47.7,0.6,36.1
					C0.6,24.8,9,15.3,22.2,15.3">
     </path>
     <path id="Fill-3" class="st0" d="M44,0.6h9.9v19.2c0,2-0.2,3.4-0.2,3.4h0.2c2-3.8,6.8-7.9,13.7-7.9c8.8,0,13.8,4.6,13.8,15.1V56
					h-9.8V32.4c0-4.8-1.2-8.1-6.3-8.1c-5.2,0-9.3,3.4-10.8,8.3c-0.5,1.6-0.6,3.3-0.6,5.1V56H44V0.6z">
     </path>
     <path id="Fill-5" class="st0" d="M103.1,49.2c5.2,0,9-5.6,9-10.5v-0.9h-1.7c-5.1,0-13.3,0.7-13.3,6.2
					C97.1,46.7,99.1,49.2,103.1,49.2 M110.7,31h1.3v-0.5c0-5.2-3.3-7-7.6-7c-5.7,0-10.9,3.8-10.9,3.8l-3.7-7.1c0,0,6.2-4.9,15.6-4.9
					c10.5,0,16.5,5.8,16.5,15.8V56h-9.1v-3.3c0-1.6,0.2-2.8,0.2-2.8h-0.2c0.1,0-3,7-12.1,7c-7.1,0-13.5-4.4-13.5-12.4
					C87.1,31.9,104.2,31,110.7,31">
     </path>
     <path id="Fill-7" class="st0" d="M130.5,16.2h9.5v4.6c0,1.5-0.2,2.7-0.2,2.7h0.2c1.7-3.4,6.1-8.3,14.1-8.3
					c8.8,0,13.8,4.6,13.8,15.1V56h-9.8V32.4c0-4.8-1.2-8.1-6.3-8.1c-5.3,0-9.2,3.4-10.7,8.1c-0.5,1.6-0.7,3.4-0.7,5.3V56h-9.9V16.2z
					">
     </path>
     <path id="Fill-9" class="st0" d="M176.8,16.2h9.5v4.6c0,1.5-0.2,2.7-0.2,2.7h0.2c1.7-3.4,6.1-8.3,14.1-8.3
					c8.8,0,13.8,4.6,13.8,15.1V56h-9.8V32.4c0-4.8-1.2-8.1-6.3-8.1c-5.3,0-9.2,3.4-10.7,8.1c-0.5,1.6-0.7,3.4-0.7,5.3V56h-9.9V16.2z
					">
     </path>
     <path id="Fill-11" class="st0" d="M235.9,49.2c5.2,0,9-5.6,9-10.5v-0.9h-1.7c-5.1,0-13.3,0.7-13.3,6.2
					C229.9,46.7,231.9,49.2,235.9,49.2 M243.5,31h1.3v-0.5c0-5.2-3.3-7-7.6-7c-5.7,0-10.9,3.8-10.9,3.8l-3.7-7.1
					c0,0,6.2-4.9,15.6-4.9c10.5,0,16.5,5.8,16.5,15.8V56h-9.1v-3.3c0-1.6,0.2-2.8,0.2-2.8h-0.2c0.1,0-3,7-12.1,7
					c-7.1,0-13.5-4.4-13.5-12.4C219.9,31.9,237,31,243.5,31">
     </path>
     <path id="Fill-13" class="st0" d="M282.8,48.6c5.5,0,10-4.4,10-12.3c0-7.6-4.1-12.5-9.9-12.5c-5.1,0-10,3.7-10,12.6
					C272.9,42.5,276.2,48.6,282.8,48.6L282.8,48.6z M263.3,0.6h9.9v17.1c0,2-0.2,3.4-0.2,3.4h0.2c0,0,3.5-5.8,11.9-5.8
					c10.8,0,17.6,8.5,17.6,20.8c0,12.6-7.7,20.8-18.3,20.8c-8.3,0-11.9-5.9-11.9-5.9h-0.2c0,0,0.2,1.2,0.2,2.7V56h-9.4V0.6z">
     </path>
     <path id="Fill-15" class="st0" d="M309.2,0.6h9.8v41.5c0,4.4,1.5,5.5,4.1,5.5c0.8,0,1.5-0.1,1.5-0.1v8.7c0,0-1.5,0.2-3.1,0.2
					c-5.5,0-12.2-1.4-12.2-12.8V0.6z">
     </path>
     <path id="Fill-17" class="st0" d="M354.6,31.2c-0.2-5.4-3.5-8.3-7.9-8.3c-5.1,0-8.6,3.1-9.5,8.3H354.6z M347,15.3
					c11.5,0,17.6,8.3,17.6,18.9c0,1.2-0.2,3.8-0.2,3.8h-27.5c0.6,6.9,6,10.5,11.9,10.5c6.4,0,11.5-4.4,11.5-4.4l3.8,7.1
					c0,0-6.1,5.7-16,5.7c-13.2,0-21.4-9.5-21.4-20.8C326.8,23.9,335.1,15.3,347,15.3L347,15.3z">
     </path>
    </g>
    <g id="_x2D_-icon">
     <polygon id="Fill-19" class="st1" points="35,60 0,80 0,120 35,140 70,120 35,100 				">
     </polygon>
     <polygon id="Fill-21" class="st2" points="105,60 105,100 70,120 105,140 140,120 140,80 				">
     </polygon>
     <polygon id="Fill-23" class="st3" points="105,60 105,20 70,0 35,20 35,60 70,40 				">
     </polygon>
     <polygon id="Fill-25" class="st4" points="35,60 35,100 70,120 70,80 				">
     </polygon>
     <polygon id="Fill-27" class="st5" points="105,60 70,80 70,120 105,100 				">
     </polygon>
     <polygon id="Fill-29" class="st6" points="105,60 70,40 35,60 70,80 				">
     </polygon>
    </g>
   </g>
  </g>
 </g>
</svg>